<mxfile host="app.diagrams.net" modified="2022-12-01T09:46:46.223Z" agent="5.0 (Macintosh; Intel Mac OS X 10_15_7) AppleWebKit/537.36 (KHTML, like Gecko) Chrome/107.0.0.0 Safari/537.36" etag="lcpxqkYDq1xxzWxlwuL0" version="20.5.1" type="github">
  <diagram id="E3jALuVVR5PxI1aeyk7M" name="第 1 页">
    <mxGraphModel dx="2610" dy="2300" grid="1" gridSize="10" guides="1" tooltips="1" connect="1" arrows="1" fold="1" page="1" pageScale="1" pageWidth="827" pageHeight="1169" math="0" shadow="0">
      <root>
        <mxCell id="0" />
        <mxCell id="1" parent="0" />
        <mxCell id="e2RcNM_Y5yWlaevunkYN-1" value="Apollo" style="shape=umlLifeline;perimeter=lifelinePerimeter;whiteSpace=wrap;html=1;container=1;collapsible=0;recursiveResize=0;outlineConnect=0;fillColor=#1ba1e2;fontColor=#ffffff;strokeColor=#006EAF;" vertex="1" parent="1">
          <mxGeometry x="40" y="10" width="100" height="1030" as="geometry" />
        </mxCell>
        <mxCell id="e2RcNM_Y5yWlaevunkYN-4" value="" style="html=1;points=[];perimeter=orthogonalPerimeter;fillColor=#1ba1e2;fontColor=#ffffff;strokeColor=#006EAF;" vertex="1" parent="e2RcNM_Y5yWlaevunkYN-1">
          <mxGeometry x="45" y="90" width="10" height="210" as="geometry" />
        </mxCell>
        <mxCell id="e2RcNM_Y5yWlaevunkYN-5" value="入单" style="html=1;verticalAlign=bottom;endArrow=block;entryX=0;entryY=0;rounded=0;" edge="1" target="e2RcNM_Y5yWlaevunkYN-4" parent="e2RcNM_Y5yWlaevunkYN-1">
          <mxGeometry relative="1" as="geometry">
            <mxPoint x="-25" y="90" as="sourcePoint" />
          </mxGeometry>
        </mxCell>
        <mxCell id="e2RcNM_Y5yWlaevunkYN-6" value="return" style="html=1;verticalAlign=bottom;endArrow=open;dashed=1;endSize=8;exitX=0;exitY=0.95;rounded=0;" edge="1" source="e2RcNM_Y5yWlaevunkYN-4" parent="e2RcNM_Y5yWlaevunkYN-1">
          <mxGeometry relative="1" as="geometry">
            <mxPoint x="-30" y="289" as="targetPoint" />
          </mxGeometry>
        </mxCell>
        <mxCell id="e2RcNM_Y5yWlaevunkYN-29" value="" style="html=1;points=[];perimeter=orthogonalPerimeter;fontColor=#ffffff;fillColor=#1ba1e2;strokeColor=#006EAF;" vertex="1" parent="e2RcNM_Y5yWlaevunkYN-1">
          <mxGeometry x="45" y="510" width="10" height="60" as="geometry" />
        </mxCell>
        <mxCell id="e2RcNM_Y5yWlaevunkYN-55" value="" style="html=1;points=[];perimeter=orthogonalPerimeter;fontColor=#ffffff;fillColor=#1ba1e2;strokeColor=#006EAF;" vertex="1" parent="e2RcNM_Y5yWlaevunkYN-1">
          <mxGeometry x="45" y="730" width="10" height="150" as="geometry" />
        </mxCell>
        <mxCell id="e2RcNM_Y5yWlaevunkYN-56" value="逆向单询T" style="html=1;verticalAlign=bottom;endArrow=block;entryX=0;entryY=0;rounded=0;fontColor=#000000;" edge="1" target="e2RcNM_Y5yWlaevunkYN-55" parent="e2RcNM_Y5yWlaevunkYN-1">
          <mxGeometry relative="1" as="geometry">
            <mxPoint x="-25" y="730" as="sourcePoint" />
          </mxGeometry>
        </mxCell>
        <mxCell id="e2RcNM_Y5yWlaevunkYN-57" value="return" style="html=1;verticalAlign=bottom;endArrow=open;dashed=1;endSize=8;exitX=0;exitY=0.95;rounded=0;fontColor=#000000;" edge="1" source="e2RcNM_Y5yWlaevunkYN-55" parent="e2RcNM_Y5yWlaevunkYN-1">
          <mxGeometry relative="1" as="geometry">
            <mxPoint x="-29" y="873" as="targetPoint" />
          </mxGeometry>
        </mxCell>
        <mxCell id="e2RcNM_Y5yWlaevunkYN-2" value="T工程" style="shape=umlLifeline;perimeter=lifelinePerimeter;whiteSpace=wrap;html=1;container=1;collapsible=0;recursiveResize=0;outlineConnect=0;fillColor=#ffe6cc;strokeColor=#d79b00;" vertex="1" parent="1">
          <mxGeometry x="580" y="20" width="100" height="1020" as="geometry" />
        </mxCell>
        <mxCell id="e2RcNM_Y5yWlaevunkYN-7" value="" style="html=1;points=[];perimeter=orthogonalPerimeter;fillColor=#ffe6cc;strokeColor=#d79b00;" vertex="1" parent="e2RcNM_Y5yWlaevunkYN-2">
          <mxGeometry x="45" y="100" width="10" height="180" as="geometry" />
        </mxCell>
        <mxCell id="e2RcNM_Y5yWlaevunkYN-13" value="" style="html=1;points=[];perimeter=orthogonalPerimeter;fillColor=#ffe6cc;strokeColor=#d79b00;" vertex="1" parent="e2RcNM_Y5yWlaevunkYN-2">
          <mxGeometry x="45" y="470" width="10" height="110" as="geometry" />
        </mxCell>
        <mxCell id="e2RcNM_Y5yWlaevunkYN-26" value="" style="html=1;points=[];perimeter=orthogonalPerimeter;fillColor=#ffe6cc;strokeColor=#d79b00;" vertex="1" parent="e2RcNM_Y5yWlaevunkYN-2">
          <mxGeometry x="55" y="160" width="10" height="70" as="geometry" />
        </mxCell>
        <mxCell id="e2RcNM_Y5yWlaevunkYN-27" value="&lt;font color=&quot;#ff3333&quot;&gt;计算波次达骑手时间片&lt;/font&gt;" style="edgeStyle=orthogonalEdgeStyle;html=1;align=left;spacingLeft=2;endArrow=block;rounded=0;entryX=1;entryY=0;fontColor=#000000;fillColor=#ffe6cc;strokeColor=#d79b00;" edge="1" target="e2RcNM_Y5yWlaevunkYN-26" parent="e2RcNM_Y5yWlaevunkYN-2">
          <mxGeometry relative="1" as="geometry">
            <mxPoint x="60" y="140" as="sourcePoint" />
            <Array as="points">
              <mxPoint x="90" y="140" />
            </Array>
          </mxGeometry>
        </mxCell>
        <mxCell id="e2RcNM_Y5yWlaevunkYN-58" value="" style="html=1;points=[];perimeter=orthogonalPerimeter;fillColor=#ffe6cc;strokeColor=#d79b00;" vertex="1" parent="e2RcNM_Y5yWlaevunkYN-2">
          <mxGeometry x="45" y="739" width="10" height="80" as="geometry" />
        </mxCell>
        <mxCell id="e2RcNM_Y5yWlaevunkYN-3" value="分流" style="shape=umlLifeline;perimeter=lifelinePerimeter;whiteSpace=wrap;html=1;container=1;collapsible=0;recursiveResize=0;outlineConnect=0;fillColor=#d5e8d4;strokeColor=#82b366;" vertex="1" parent="1">
          <mxGeometry x="-210" y="10" width="100" height="1030" as="geometry" />
        </mxCell>
        <mxCell id="e2RcNM_Y5yWlaevunkYN-10" value="" style="html=1;points=[];perimeter=orthogonalPerimeter;fillColor=#d5e8d4;strokeColor=#82b366;" vertex="1" parent="e2RcNM_Y5yWlaevunkYN-3">
          <mxGeometry x="45" y="460" width="10" height="160" as="geometry" />
        </mxCell>
        <mxCell id="e2RcNM_Y5yWlaevunkYN-11" value="分流推运力线" style="html=1;verticalAlign=bottom;endArrow=block;entryX=0;entryY=0;rounded=0;fillColor=#f5f5f5;strokeColor=#666666;" edge="1" target="e2RcNM_Y5yWlaevunkYN-10" parent="e2RcNM_Y5yWlaevunkYN-3">
          <mxGeometry relative="1" as="geometry">
            <mxPoint x="-60" y="460" as="sourcePoint" />
          </mxGeometry>
        </mxCell>
        <mxCell id="e2RcNM_Y5yWlaevunkYN-12" value="return" style="html=1;verticalAlign=bottom;endArrow=open;dashed=1;endSize=8;exitX=0;exitY=0.95;rounded=0;fillColor=#f5f5f5;strokeColor=#666666;" edge="1" source="e2RcNM_Y5yWlaevunkYN-10" parent="e2RcNM_Y5yWlaevunkYN-3">
          <mxGeometry relative="1" as="geometry">
            <mxPoint x="-60" y="610" as="targetPoint" />
          </mxGeometry>
        </mxCell>
        <mxCell id="e2RcNM_Y5yWlaevunkYN-8" value="即时单入单询T，&lt;font color=&quot;#ff3333&quot;&gt;用户时间片、出餐时间片&lt;/font&gt;" style="html=1;verticalAlign=bottom;endArrow=block;entryX=0;entryY=0;rounded=0;" edge="1" target="e2RcNM_Y5yWlaevunkYN-7" parent="1" source="e2RcNM_Y5yWlaevunkYN-1">
          <mxGeometry relative="1" as="geometry">
            <mxPoint x="195" y="110" as="sourcePoint" />
          </mxGeometry>
        </mxCell>
        <mxCell id="e2RcNM_Y5yWlaevunkYN-9" value="&lt;font color=&quot;#ff3333&quot;&gt;骑手时间片&lt;/font&gt;" style="html=1;verticalAlign=bottom;endArrow=open;dashed=1;endSize=8;exitX=0;exitY=0.95;rounded=0;" edge="1" source="e2RcNM_Y5yWlaevunkYN-7" parent="1" target="e2RcNM_Y5yWlaevunkYN-1">
          <mxGeometry relative="1" as="geometry">
            <mxPoint x="200" y="170" as="targetPoint" />
          </mxGeometry>
        </mxCell>
        <mxCell id="e2RcNM_Y5yWlaevunkYN-14" value="分流询T" style="html=1;verticalAlign=bottom;endArrow=block;entryX=0;entryY=0;rounded=0;" edge="1" target="e2RcNM_Y5yWlaevunkYN-13" parent="1" source="e2RcNM_Y5yWlaevunkYN-10">
          <mxGeometry relative="1" as="geometry">
            <mxPoint x="-160" y="500" as="sourcePoint" />
          </mxGeometry>
        </mxCell>
        <mxCell id="e2RcNM_Y5yWlaevunkYN-15" value="" style="html=1;verticalAlign=bottom;endArrow=open;dashed=1;endSize=8;exitX=0;exitY=0.95;rounded=0;entryX=0.844;entryY=0.797;entryDx=0;entryDy=0;entryPerimeter=0;" edge="1" source="e2RcNM_Y5yWlaevunkYN-13" parent="1" target="e2RcNM_Y5yWlaevunkYN-10">
          <mxGeometry relative="1" as="geometry">
            <mxPoint x="-161" y="576" as="targetPoint" />
          </mxGeometry>
        </mxCell>
        <mxCell id="e2RcNM_Y5yWlaevunkYN-30" value="写骑手时间片" style="html=1;verticalAlign=bottom;endArrow=block;entryX=1;entryY=0;rounded=0;fontColor=#FF3333;" edge="1" target="e2RcNM_Y5yWlaevunkYN-29" parent="1" source="e2RcNM_Y5yWlaevunkYN-2">
          <mxGeometry relative="1" as="geometry">
            <mxPoint x="155" y="510" as="sourcePoint" />
          </mxGeometry>
        </mxCell>
        <mxCell id="e2RcNM_Y5yWlaevunkYN-31" value="" style="html=1;verticalAlign=bottom;endArrow=open;dashed=1;endSize=8;exitX=1;exitY=0.95;rounded=0;fontColor=#FF3333;" edge="1" source="e2RcNM_Y5yWlaevunkYN-29" parent="1" target="e2RcNM_Y5yWlaevunkYN-2">
          <mxGeometry relative="1" as="geometry">
            <mxPoint x="155" y="567" as="targetPoint" />
          </mxGeometry>
        </mxCell>
        <mxCell id="e2RcNM_Y5yWlaevunkYN-34" value="" style="whiteSpace=wrap;html=1;fontColor=#000000;" vertex="1" parent="1">
          <mxGeometry x="-520" y="-150" width="120" height="60" as="geometry" />
        </mxCell>
        <mxCell id="e2RcNM_Y5yWlaevunkYN-35" value="饿了么主站" style="whiteSpace=wrap;html=1;fontColor=#000000;" vertex="1" parent="1">
          <mxGeometry x="1180" y="70" width="120" height="60" as="geometry" />
        </mxCell>
        <mxCell id="e2RcNM_Y5yWlaevunkYN-36" value="开放平台" style="whiteSpace=wrap;html=1;fontColor=#000000;" vertex="1" parent="1">
          <mxGeometry x="1340" y="70" width="120" height="60" as="geometry" />
        </mxCell>
        <mxCell id="e2RcNM_Y5yWlaevunkYN-37" value="同城送" style="whiteSpace=wrap;html=1;fontColor=#000000;" vertex="1" parent="1">
          <mxGeometry x="1690" y="70" width="120" height="60" as="geometry" />
        </mxCell>
        <mxCell id="e2RcNM_Y5yWlaevunkYN-38" value="帮买帮送" style="whiteSpace=wrap;html=1;fontColor=#000000;" vertex="1" parent="1">
          <mxGeometry x="1860" y="70" width="120" height="60" as="geometry" />
        </mxCell>
        <mxCell id="e2RcNM_Y5yWlaevunkYN-39" value="物流履约平台" style="whiteSpace=wrap;html=1;fontColor=#000000;" vertex="1" parent="1">
          <mxGeometry x="2030" y="70" width="120" height="60" as="geometry" />
        </mxCell>
        <mxCell id="e2RcNM_Y5yWlaevunkYN-40" value="鸟潮" style="whiteSpace=wrap;html=1;fontColor=#000000;" vertex="1" parent="1">
          <mxGeometry x="2190" y="70" width="120" height="60" as="geometry" />
        </mxCell>
        <mxCell id="e2RcNM_Y5yWlaevunkYN-41" value="餐饮" style="whiteSpace=wrap;html=1;fontColor=#000000;" vertex="1" parent="1">
          <mxGeometry x="1490" y="180" width="120" height="60" as="geometry" />
        </mxCell>
        <mxCell id="e2RcNM_Y5yWlaevunkYN-42" value="零售" style="whiteSpace=wrap;html=1;fontColor=#000000;" vertex="1" parent="1">
          <mxGeometry x="1730" y="180" width="120" height="60" as="geometry" />
        </mxCell>
        <mxCell id="e2RcNM_Y5yWlaevunkYN-43" value="众包" style="whiteSpace=wrap;html=1;fontColor=#000000;" vertex="1" parent="1">
          <mxGeometry x="1210" y="550" width="120" height="60" as="geometry" />
        </mxCell>
        <mxCell id="e2RcNM_Y5yWlaevunkYN-44" value="专送" style="whiteSpace=wrap;html=1;fontColor=#000000;" vertex="1" parent="1">
          <mxGeometry x="1370" y="550" width="120" height="60" as="geometry" />
        </mxCell>
        <mxCell id="e2RcNM_Y5yWlaevunkYN-45" value="混调" style="whiteSpace=wrap;html=1;fontColor=#000000;" vertex="1" parent="1">
          <mxGeometry x="2030" y="550" width="120" height="60" as="geometry" />
        </mxCell>
        <mxCell id="e2RcNM_Y5yWlaevunkYN-46" value="自配送" style="whiteSpace=wrap;html=1;fontColor=#000000;" vertex="1" parent="1">
          <mxGeometry x="2190" y="550" width="120" height="60" as="geometry" />
        </mxCell>
        <mxCell id="e2RcNM_Y5yWlaevunkYN-47" value="即时单" style="whiteSpace=wrap;html=1;fontColor=#000000;" vertex="1" parent="1">
          <mxGeometry x="1490" y="300" width="120" height="60" as="geometry" />
        </mxCell>
        <mxCell id="e2RcNM_Y5yWlaevunkYN-48" value="预定单" style="whiteSpace=wrap;html=1;fontColor=#000000;" vertex="1" parent="1">
          <mxGeometry x="1730" y="300" width="120" height="60" as="geometry" />
        </mxCell>
        <mxCell id="e2RcNM_Y5yWlaevunkYN-49" value="先出餐后呼单" style="whiteSpace=wrap;html=1;fontColor=#000000;" vertex="1" parent="1">
          <mxGeometry x="1490" y="420" width="120" height="60" as="geometry" />
        </mxCell>
        <mxCell id="e2RcNM_Y5yWlaevunkYN-50" value="先呼单后出餐" style="whiteSpace=wrap;html=1;fontColor=#000000;" vertex="1" parent="1">
          <mxGeometry x="1730" y="420" width="120" height="60" as="geometry" />
        </mxCell>
        <mxCell id="e2RcNM_Y5yWlaevunkYN-51" value="蜂鸟商家" style="whiteSpace=wrap;html=1;fontColor=#000000;" vertex="1" parent="1">
          <mxGeometry x="1520" y="70" width="120" height="60" as="geometry" />
        </mxCell>
        <mxCell id="e2RcNM_Y5yWlaevunkYN-52" value="点我达" style="whiteSpace=wrap;html=1;fontColor=#000000;" vertex="1" parent="1">
          <mxGeometry x="1520" y="550" width="120" height="60" as="geometry" />
        </mxCell>
        <mxCell id="e2RcNM_Y5yWlaevunkYN-53" value="麦芽田" style="whiteSpace=wrap;html=1;fontColor=#000000;" vertex="1" parent="1">
          <mxGeometry x="1690" y="550" width="120" height="60" as="geometry" />
        </mxCell>
        <mxCell id="e2RcNM_Y5yWlaevunkYN-54" value="蜂鸟联盟" style="whiteSpace=wrap;html=1;fontColor=#000000;" vertex="1" parent="1">
          <mxGeometry x="1850" y="550" width="120" height="60" as="geometry" />
        </mxCell>
        <mxCell id="e2RcNM_Y5yWlaevunkYN-59" value="重新询T" style="html=1;verticalAlign=bottom;endArrow=block;entryX=0;entryY=0;rounded=0;fontColor=#000000;" edge="1" target="e2RcNM_Y5yWlaevunkYN-58" parent="1">
          <mxGeometry relative="1" as="geometry">
            <mxPoint x="90.25" y="759" as="sourcePoint" />
          </mxGeometry>
        </mxCell>
        <mxCell id="e2RcNM_Y5yWlaevunkYN-60" value="&lt;span style=&quot;color: rgb(255, 51, 51);&quot;&gt;骑手时间片&lt;/span&gt;" style="html=1;verticalAlign=bottom;endArrow=open;dashed=1;endSize=8;exitX=0;exitY=0.95;rounded=0;fontColor=#000000;" edge="1" source="e2RcNM_Y5yWlaevunkYN-58" parent="1" target="e2RcNM_Y5yWlaevunkYN-55">
          <mxGeometry relative="1" as="geometry">
            <mxPoint x="555" y="835" as="targetPoint" />
          </mxGeometry>
        </mxCell>
      </root>
    </mxGraphModel>
  </diagram>
</mxfile>
